# xmcd CD database file
#
# Track frame offsets:
#	150
#	17346
#	27111
#	39983
#	51416
#	61304
#	77290
#	88932
#	98443
#	109555
#	123772
#	136873
#	150783
#	162119
#	174543
#	181294
#	196261
#	213106
#	225322
#	243004
#
# Disc length: 3551 seconds
#
# Revision: 0
# Processed by: cddbd v1.5.2PL0 Copyright (c) Steve Scherf et al.
# Submitted via: CDex 1.50
#
DISCID=d70ddd14
DTITLE=Watson, Doc - - Doc's Prescription - CD 2
DYEAR=1900
DGENRE=Country
TTITLE0=Doc's tune
TTITLE1=Stream of whiskey
TTITLE2=Worried blues
TTITLE3=Tom Dooley
TTITLE4=Liza Jane
TTITLE5=Midnight on the stormy deep
TTITLE6=The Coo-Coo bird
TTITLE7=Keep my skillet good and greasy
TTITLE8=Tough luck
TTITLE9=I heard my mother weeping
TTITLE10=Maggie Walker Blues
TTITLE11=God's gonna ease my troublin' mind
TTITLE12=Sally Ann
TTITLE13=Rueben's train
TTITLE14=Shady grove
TTITLE15=49 Biscuits
TTITLE16=True lovers
TTITLE17=Footprints in the snow
TTITLE18=Amazing grace
TTITLE19=Hick's farewell
EXTD=
EXTT0=
EXTT1=
EXTT2=
EXTT3=
EXTT4=
EXTT5=
EXTT6=
EXTT7=
EXTT8=
EXTT9=
EXTT10=
EXTT11=
EXTT12=
EXTT13=
EXTT14=
EXTT15=
EXTT16=
EXTT17=
EXTT18=
EXTT19=
PLAYORDER=
